<?xml version="1.0" standalone="no"?>
<!DOCTYPE svg PUBLIC "-//W3C//DTD SVG 20010904//EN"
 "http://www.w3.org/TR/2001/REC-SVG-20010904/DTD/svg10.dtd">
<svg version="1.0" xmlns="http://www.w3.org/2000/svg"
 width="400.000000pt" height="400.000000pt" viewBox="0 0 400.000000 400.000000"
 preserveAspectRatio="xMidYMid meet">
<metadata>
Created by potrace 1.14, written by Peter Selinger 2001-2017
</metadata>
<g transform="translate(0.000000,400.000000) scale(0.100000,-0.100000)"
fill="#000000" stroke="none">
<path d="M3010 2814 l0 -236 -27 18 c-186 122 -449 152 -677 78 -181 -59 -354
-211 -446 -392 -71 -140 -98 -363 -63 -517 63 -282 272 -504 558 -591 92 -28
324 -26 424 4 123 36 216 90 316 184 119 111 187 225 226 377 22 84 23 100 24
699 l0 612 -167 0 -168 0 0 -236z m-361 -444 c152 -29 283 -142 336 -290 38
-105 28 -244 -23 -349 -55 -112 -193 -217 -312 -236 -152 -26 -287 14 -395
116 -91 86 -138 198 -137 329 1 277 256 483 531 430z"/>
<path d="M3450 2882 l0 -167 163 1 c89 1 164 2 168 3 3 0 5 75 5 166 l-1 165
-167 0 -168 0 0 -168z"/>
<path d="M750 2704 c-231 -38 -433 -181 -557 -396 -87 -150 -115 -394 -67
-581 68 -267 301 -491 575 -556 130 -31 304 -24 425 17 50 17 114 44 143 61
28 17 54 31 56 31 3 0 5 -29 5 -65 l0 -65 168 0 168 0 -1 448 c-1 246 -4 456
-8 467 -3 11 -9 36 -12 55 -18 107 -111 268 -210 366 -187 185 -425 260 -685
218z m243 -339 c106 -27 174 -73 248 -167 55 -71 81 -146 85 -253 3 -99 -16
-173 -64 -250 -61 -97 -187 -183 -292 -200 -210 -35 -404 63 -490 248 -31 65
-50 160 -44 212 2 16 7 48 9 69 10 68 62 164 123 223 118 114 273 158 425 118z"/>
<path d="M3450 1878 l0 -728 168 0 167 0 -1 723 c-1 397 -2 724 -3 727 0 3
-75 5 -166 5 l-165 0 0 -727z"/>
</g>
</svg>
